<?xml version="1.0" encoding="UTF-8"?>
<svg version="1.1" xmlns="http://www.w3.org/2000/svg" width="49" height="57">
<path d="M0 0 C2.10494301 0.08708038 4.20902142 0.19525693 6.3125 0.3125 C8.07013672 0.39951172 8.07013672 0.39951172 9.86328125 0.48828125 C13.0983686 1.01604768 14.08684881 1.42380724 16 4 C13.00468461 4.99843846 11.82744268 5.00732761 8.8125 4.5625 C7.554375 4.376875 6.29625 4.19125 5 4 C4.67 4.66 4.34 5.32 4 6 C3.01 6 2.02 6 1 6 C0.7525 6.639375 0.505 7.27875 0.25 7.9375 C-0.1625 8.618125 -0.575 9.29875 -1 10 C-1.598125 10.12375 -2.19625 10.2475 -2.8125 10.375 C-6.36186277 11.38910365 -7.79321078 14.11891407 -10 17 C-9.67 17.66 -9.34 18.32 -9 19 C-6.97536745 19.65213292 -6.97536745 19.65213292 -5 20 C-4.67 19.34 -4.34 18.68 -4 18 C-2.22265625 17.515625 -2.22265625 17.515625 -0.0625 17.25 C0.64777344 17.15203125 1.35804687 17.0540625 2.08984375 16.953125 C4 17 4 17 6 19 C6.33 18.34 6.66 17.68 7 17 C9.39614126 16.94574774 11.79103853 16.90620973 14.1875 16.875 C14.86103516 16.85824219 15.53457031 16.84148438 16.22851562 16.82421875 C20.26748978 16.78481412 23.41859848 17.07103421 27 19 C27.495 19.99 27.495 19.99 28 21 C27.67 21.66 27.34 22.32 27 23 C24.69 23 22.38 23 20 23 C20 33.89 20 44.78 20 56 C19.01 55.67 18.02 55.34 17 55 C16.80083984 53.96939453 16.80083984 53.96939453 16.59765625 52.91796875 C16.42105469 52.01691406 16.24445312 51.11585937 16.0625 50.1875 C15.88847656 49.29417969 15.71445312 48.40085938 15.53515625 47.48046875 C15.02258847 44.88602829 15.02258847 44.88602829 14 42 C13.443125 42.78375 12.88625 43.5675 12.3125 44.375 C9.7836953 47.24553506 8.70086738 48.17758503 5 49 C-3.09364007 49.26821029 -9.43099499 46.03365426 -15.5 40.875 C-17.28426832 38.6446646 -18 36.87337386 -18 34 C-18.66 33.67 -19.32 33.34 -20 33 C-20.48095746 18.70487545 -20.48095746 18.70487545 -18 13 C-17.01 12.67 -16.02 12.34 -15 12 C-13.64721885 10.01310269 -12.31431695 8.01254782 -11 6 C-5 2 -5 2 0 2 C0 1.34 0 0.68 0 0 Z M-12 19 C-11 21 -11 21 -11 21 Z M-13 22 C-13.8529113 27.83206918 -14.50091737 32.47165633 -12 38 C-11.566875 39.11375 -11.566875 39.11375 -11.125 40.25 C-9.61416216 42.60019219 -8.67987491 43.15372371 -6 44 C-0.58020854 44.43014218 2.54710878 44.40515211 7 41 C9.34973818 39.10244856 9.34973818 39.10244856 9.125 35.875 C9.08375 34.92625 9.0425 33.9775 9 33 C8.21753906 33.01160156 7.43507813 33.02320313 6.62890625 33.03515625 C5.61699219 33.04417969 4.60507812 33.05320312 3.5625 33.0625 C2.55316406 33.07410156 1.54382813 33.08570313 0.50390625 33.09765625 C-2 33 -2 33 -3 32 C-3 31.34 -3 30.68 -3 30 C-1.01860265 28.63242962 1.05472212 27.49654964 3.15234375 26.31640625 C5.30967459 25.05288044 5.30967459 25.05288044 6 22 C3.36 22.33 0.72 22.66 -2 23 C-2.33 23.99 -2.66 24.98 -3 26 C-5.31 25.67 -7.62 25.34 -10 25 C-10 24.01 -10 23.02 -10 22 C-10.99 22 -11.98 22 -13 22 Z M10 23 C10 24.65 10 26.3 10 28 C11.32 28 12.64 28 14 28 C14.33 26.35 14.66 24.7 15 23 C13.35 23 11.7 23 10 23 Z M8 29 C8 29.66 8 30.32 8 31 C8.99 30.67 9.98 30.34 11 30 C10.01 29.67 9.02 29.34 8 29 Z " fill="#131313" transform="translate(21,0)"/>
<path d="M0 0 C0.66 0.33 1.32 0.66 2 1 C1.67 1.66 1.34 2.32 1 3 C0.01 2.67 -0.98 2.34 -2 2 C-1.34 1.34 -0.68 0.68 0 0 Z " fill="#000000" transform="translate(34,44)"/>
<path d="M0 0 C0.99 0.99 1.98 1.98 3 3 C2.01 2.67 1.02 2.34 0 2 C0 1.34 0 0.68 0 0 Z " fill="#000000" transform="translate(10,38)"/>
<path d="M0 0 C0.66 0.33 1.32 0.66 2 1 C1.01 1 0.02 1 -1 1 C-0.67 0.67 -0.34 0.34 0 0 Z " fill="#000000" transform="translate(23,24)"/>
<path d="M0 0 C0 3 0 3 0 3 Z " fill="#000000" transform="translate(5,10)"/>
<path d="M0 0 C0.99 0.495 0.99 0.495 2 1 C1.01 1.495 1.01 1.495 0 2 C0 1.34 0 0.68 0 0 Z " fill="#000000" transform="translate(16,28)"/>
<path d="M0 0 C2 1 2 1 2 1 Z " fill="#000000" transform="translate(11,46)"/>
<path d="M0 0 C2 1 2 1 2 1 Z " fill="#000000" transform="translate(9,45)"/>
<path d="" fill="#000000" transform="translate(0,0)"/>
<path d="M0 0 C2 1 2 1 2 1 Z " fill="#000000" transform="translate(11,26)"/>
<path d="M0 0 C2 1 2 1 2 1 Z " fill="#000000" transform="translate(19,24)"/>
<path d="" fill="#000000" transform="translate(0,0)"/>
<path d="" fill="#000000" transform="translate(0,0)"/>
<path d="" fill="#000000" transform="translate(0,0)"/>
<path d="" fill="#000000" transform="translate(0,0)"/>
<path d="" fill="#000000" transform="translate(0,0)"/>
<path d="" fill="#000000" transform="translate(0,0)"/>
<path d="" fill="#000000" transform="translate(0,0)"/>
<path d="" fill="#000000" transform="translate(0,0)"/>
<path d="" fill="#000000" transform="translate(0,0)"/>
<path d="" fill="#000000" transform="translate(0,0)"/>
<path d="" fill="#000000" transform="translate(0,0)"/>
<path d="" fill="#000000" transform="translate(0,0)"/>
<path d="" fill="#000000" transform="translate(0,0)"/>
<path d="" fill="#000000" transform="translate(0,0)"/>
<path d="" fill="#000000" transform="translate(0,0)"/>
<path d="" fill="#000000" transform="translate(0,0)"/>
<path d="" fill="#000000" transform="translate(0,0)"/>
<path d="" fill="#000000" transform="translate(0,0)"/>
<path d="" fill="#000000" transform="translate(0,0)"/>
<path d="" fill="#000000" transform="translate(0,0)"/>
<path d="" fill="#000000" transform="translate(0,0)"/>
<path d="" fill="#000000" transform="translate(0,0)"/>
<path d="" fill="#000000" transform="translate(0,0)"/>
<path d="" fill="#000000" transform="translate(0,0)"/>
<path d="" fill="#000000" transform="translate(0,0)"/>
<path d="" fill="#000000" transform="translate(0,0)"/>
<path d="" fill="#000000" transform="translate(0,0)"/>
<path d="" fill="#000000" transform="translate(0,0)"/>
<path d="" fill="#000000" transform="translate(0,0)"/>
<path d="" fill="#000000" transform="translate(0,0)"/>
<path d="" fill="#000000" transform="translate(0,0)"/>
<path d="" fill="#000000" transform="translate(0,0)"/>
<path d="" fill="#000000" transform="translate(0,0)"/>
<path d="" fill="#000000" transform="translate(0,0)"/>
<path d="" fill="#000000" transform="translate(0,0)"/>
<path d="" fill="#000000" transform="translate(0,0)"/>
<path d="" fill="#000000" transform="translate(0,0)"/>
<path d="" fill="#000000" transform="translate(0,0)"/>
<path d="" fill="#000000" transform="translate(0,0)"/>
<path d="" fill="#000000" transform="translate(0,0)"/>
<path d="" fill="#000000" transform="translate(0,0)"/>
<path d="" fill="#000000" transform="translate(0,0)"/>
<path d="" fill="#000000" transform="translate(0,0)"/>
<path d="" fill="#000000" transform="translate(0,0)"/>
<path d="" fill="#000000" transform="translate(0,0)"/>
<path d="" fill="#000000" transform="translate(0,0)"/>
</svg>
